<svg xmlns="http://www.w3.org/2000/svg" viewBox="0 0 420 520">
<defs><linearGradient id="g" x1="0" y1="0" x2="1" y2="1"><stop stop-color="#fffbd8"/><stop offset=".25" stop-color="#bfc5ca"/><stop offset=".48" stop-color="#ffffff"/><stop offset=".75" stop-color="#9b7131"/><stop offset="1" stop-color="#4e3214"/></linearGradient><filter id="s"><feDropShadow dx="0" dy="14" stdDeviation="13" flood-opacity=".55"/></filter></defs>
<g filter="url(#s)"><path fill="url(#g)" d="M126 140h168l-18 190c-5 53-31 86-66 86s-61-33-66-86z"/><path fill="url(#g)" d="M170 93h80l18 46H152z"/><path fill="url(#g)" d="M195 38h30v60h-30z"/><circle cx="210" cy="31" r="21" fill="url(#g)"/><path fill="none" stroke="url(#g)" stroke-width="24" d="M132 176H78c-18 0-29 18-21 34 28 55 58 84 92 99M288 176h54c18 0 29 18 21 34-28 55-58 84-92 99"/><path fill="#111821" d="M156 395h108v49H156z"/><path fill="url(#g)" d="M93 444h234v34H93z"/><path fill="#8b1017" d="M105 143 65 360l45-23 30 37 23-231zM315 143l40 217-45-23-30 37-23-231z"/><circle cx="210" cy="251" r="48" fill="#0d1722" opacity=".25"/><path fill="none" stroke="#f8dd91" stroke-width="7" d="M184 251h52M210 225v52" opacity=".8"/></g>
</svg>
