<svg xmlns="http://www.w3.org/2000/svg" viewBox="0 0 480 600" role="img" aria-label="Premier League Trophy">
  <defs>
    <linearGradient id="premGold" x1="0" y1="0" x2="1" y2="1">
      <stop offset="0" stop-color="#fff5bf"/>
      <stop offset="0.18" stop-color="#f5d87b"/>
      <stop offset="0.42" stop-color="#c78a26"/>
      <stop offset="0.62" stop-color="#f8e8a7"/>
      <stop offset="1" stop-color="#6b3d10"/>
    </linearGradient>
    <linearGradient id="premDark" x1="0" y1="0" x2="0" y2="1">
      <stop offset="0" stop-color="#151f2a"/>
      <stop offset="1" stop-color="#050b12"/>
    </linearGradient>
    <radialGradient id="premGlow" cx="50%" cy="40%" r="60%">
      <stop offset="0" stop-color="#ffe9a7" stop-opacity="0.65"/>
      <stop offset="1" stop-color="#ffe9a7" stop-opacity="0"/>
    </radialGradient>
    <filter id="premShadow" x="-30%" y="-30%" width="160%" height="180%">
      <feDropShadow dx="0" dy="18" stdDeviation="16" flood-color="#000" flood-opacity="0.45"/>
    </filter>
  </defs>
  <ellipse cx="240" cy="540" rx="128" ry="28" fill="#000" opacity="0.28"/>
  <g filter="url(#premShadow)">
    <ellipse cx="240" cy="230" rx="145" ry="145" fill="url(#premGlow)"/>
    <g fill="url(#premGold)">
      <path d="M168 92l19-46 37 32 16-56 16 56 37-32 19 46z"/>
      <circle cx="240" cy="34" r="15"/>
      <path d="M214 44h52l18 42h-88z"/>
      <path d="M126 168h228l-22 179c-9 76-51 126-92 126s-83-50-92-126z"/>
      <path d="M150 120h180l22 48H128z"/>
      <path d="M142 180H90c-17 0-28 16-24 31 17 70 57 126 118 146" fill="none" stroke="url(#premGold)" stroke-width="24" stroke-linecap="round"/>
      <path d="M338 180h52c17 0 28 16 24 31-17 70-57 126-118 146" fill="none" stroke="url(#premGold)" stroke-width="24" stroke-linecap="round"/>
      <path d="M178 465h124v42H178z"/>
      <path d="M128 507h224v36H128z"/>
      <path d="M158 543h164v20H158z"/>
    </g>
    <g>
      <path d="M160 178h160l-17 154c-6 56-32 95-63 95s-57-39-63-95z" fill="#34240e" opacity="0.2"/>
      <path d="M240 210c-41 0-74 33-74 74 0 49 41 71 74 107 33-36 74-58 74-107 0-41-33-74-74-74zm0 21c29 0 53 24 53 53 0 28-24 46-53 77-29-31-53-49-53-77 0-29 24-53 53-53z" fill="#fff0b4" opacity="0.78"/>
      <path d="M193 274h94" stroke="#fff8d8" stroke-width="7" stroke-linecap="round" opacity="0.65"/>
      <path d="M210 303h60" stroke="#fff8d8" stroke-width="7" stroke-linecap="round" opacity="0.55"/>
    </g>
    <rect x="194" y="478" width="92" height="18" rx="9" fill="#eac96e" opacity="0.7"/>
  </g>
</svg>
