<svg xmlns="http://www.w3.org/2000/svg" viewBox="0 0 420 520">
<defs><linearGradient id="g" x1="0" y1="0" x2="1" y2="1"><stop stop-color="#fff4b5"/><stop offset=".35" stop-color="#d9a738"/><stop offset=".7" stop-color="#f5df8b"/><stop offset="1" stop-color="#70420d"/></linearGradient><filter id="s"><feDropShadow dx="0" dy="14" stdDeviation="12" flood-opacity=".5"/></filter></defs>
<g filter="url(#s)"><path fill="url(#g)" d="M100 125h220l-21 210c-5 52-43 87-89 87s-84-35-89-87z"/><path fill="none" stroke="url(#g)" stroke-width="25" d="M111 162H64c-12 0-21 10-19 22 10 75 45 118 91 125M309 162h47c12 0 21 10 19 22-10 75-45 118-91 125"/><path fill="#101820" d="M157 394h106v48H157z"/><path fill="url(#g)" d="M105 442h210v35H105z"/><path fill="url(#g)" d="M129 103l20-55 40 38 21-62 21 62 40-38 20 55z"/><path fill="#0d1520" d="M174 183h72v119h-72z" opacity=".25"/><circle cx="210" cy="245" r="40" fill="none" stroke="#fff0a4" stroke-width="7" opacity=".65"/></g>
</svg>
