<svg xmlns="http://www.w3.org/2000/svg" viewBox="0 0 420 520">
<defs><linearGradient id="g" x1="0" y1="0" x2="1" y2="1"><stop stop-color="#ffffff"/><stop offset=".25" stop-color="#a7b1bb"/><stop offset=".5" stop-color="#f7f7f7"/><stop offset=".8" stop-color="#586570"/><stop offset="1" stop-color="#222b33"/></linearGradient><radialGradient id="b"><stop stop-color="#e5c66c"/><stop offset=".55" stop-color="#7b5517"/><stop offset="1" stop-color="#111820"/></radialGradient><filter id="s"><feDropShadow dx="0" dy="14" stdDeviation="13" flood-opacity=".55"/></filter></defs>
<g filter="url(#s)"><path fill="none" stroke="url(#g)" stroke-width="31" d="M102 86c29 96 35 207 108 278 73-71 79-182 108-278M107 93c52 31 76 68 103 121 27-53 51-90 103-121"/><circle cx="210" cy="204" r="59" fill="url(#b)"/><path fill="none" stroke="#d9be70" stroke-width="5" d="M170 185c27 12 53 12 80 0M171 222c26-12 52-12 78 0M210 147c-18 39-18 75 0 114M210 147c18 39 18 75 0 114" opacity=".85"/><path fill="#101820" d="M160 385h100v56H160z"/><path fill="url(#g)" d="M100 441h220v36H100z"/></g>
</svg>
